<mxfile host="www.draw.io" modified="2019-11-10T21:51:12.331Z" agent="Mozilla/5.0 (Windows NT 10.0; Win64; x64) AppleWebKit/537.36 (KHTML, like Gecko) Chrome/77.0.3865.120 Safari/537.36" etag="lGc3gCnj31dJ4Bdgxx72" version="12.2.3" type="github" pages="1">
  <diagram id="UlBtzI1ZNlD8sB-hrL4E" name="Page-1">
    <mxGraphModel dx="1582" dy="2027" grid="1" gridSize="10" guides="1" tooltips="1" connect="1" arrows="1" fold="1" page="1" pageScale="1" pageWidth="850" pageHeight="1100" math="0" shadow="0">
      <root>
        <mxCell id="0"/>
        <mxCell id="1" parent="0"/>
        <mxCell id="7DPCoZ7IAuu5SNDoNPq_-1" value="&lt;b&gt;Dados de domínios do Pfam&lt;br&gt;obtidos com buscas&lt;br&gt;associados a localização&lt;br&gt;celular&lt;br&gt;2.2.3&lt;br&gt;&lt;/b&gt;" style="shape=parallelogram;perimeter=parallelogramPerimeter;whiteSpace=wrap;html=1;strokeWidth=2;fillColor=#ffffff;fontSize=12;size=0.12631578947368421;" vertex="1" parent="1">
          <mxGeometry x="220" y="-980" width="212" height="85" as="geometry"/>
        </mxCell>
      </root>
    </mxGraphModel>
  </diagram>
</mxfile>
